<?xml version="1.0" ?><!DOCTYPE svg  PUBLIC '-//W3C//DTD SVG 1.1//EN'  'http://www.w3.org/Graphics/SVG/1.1/DTD/svg11.dtd'><svg height="8.4666mm" style="shape-rendering:geometricPrecision; text-rendering:geometricPrecision; image-rendering:optimizeQuality; fill-rule:evenodd; clip-rule:evenodd" version="1.1" viewBox="0 0 847 847" width="8.4666mm" xml:space="preserve" xmlns="http://www.w3.org/2000/svg" xmlns:xlink="http://www.w3.org/1999/xlink"><defs><style type="text/css">
   <![CDATA[
    .fil0 {fill:#222222;fill-rule:nonzero;fill-opacity:0.501961}
   ]]>
  </style></defs><g id="Layer_x0020_1"><path class="fil0" d="M641 185c3,3 6,8 6,13l0 40c0,9 -8,17 -17,17l-413 0c-9,0 -17,-8 -17,-17l0 -139c0,-9 7,-17 17,-17l304 0c5,0 9,2 12,5l108 98zm-28 30l-92 0c-9,0 -17,-8 -17,-17l0 -82 -270 0 0 105 379 0 0 -6zm-75 -34l48 0 -48 -44 0 44zm-338 456l-86 0c-20,0 -38,-9 -51,-22 -13,-13 -21,-30 -21,-50l0 -221c0,-19 8,-37 21,-50 13,-13 31,-21 51,-21l619 0c20,0 38,8 51,21 12,13 20,31 20,50l0 221c0,20 -8,37 -20,50 -13,13 -31,22 -51,22l-86 0 0 111c0,9 -8,17 -17,17l-413 0c-9,0 -17,-8 -17,-17l0 -111zm-86 -34l86 0 0 -83c0,-10 8,-17 17,-17l413 0c9,0 17,7 17,17l0 83 86 0c10,0 20,-5 27,-11 6,-7 11,-17 11,-27l0 -221c0,-10 -5,-20 -11,-27 -7,-6 -17,-11 -27,-11l-619 0c-11,0 -20,5 -27,11 -7,7 -11,17 -11,27l0 221c0,10 4,20 11,27 7,6 16,11 27,11zm499 -66l-379 0 0 194 379 0 0 -194z"/></g></svg>