<?xml version="1.0" ?><svg viewBox="0 0 100 100" xmlns="http://www.w3.org/2000/svg"><title/><g data-name="Layer 2" id="Layer_2"><path d="M64.8,72.69,50,77.13c-30,0-44.56-25-44.7-25.3L5,51.34l.25-.52c.14-.28,14.13-28,44.76-28h0c30.62,0,44.6,27.68,44.74,28l.25.52-.28.5c-.14.25-14.69,25.3-44.7,25.3ZM50,25m15.56,2.75A27.11,27.11,0,0,1,65,72.59l-.1.06C81.72,67.24,90.79,54,92.52,51.26c-1.61-2.93-10.3-17.46-27-23.54ZM34.5,27.73C17.76,33.82,9.1,48.34,7.5,51.26c1.73,2.74,10.8,16,27.57,21.38l0,0a27.11,27.11,0,0,1-.61-44.82ZM50,25A25,25,0,1,0,75,50,25,25,0,0,0,50,25Z"/><path d="M50,59.16A9.16,9.16,0,1,1,59.17,50,9.17,9.17,0,0,1,50,59.16Z"/></g></svg>