<?xml version="1.0" ?><!DOCTYPE svg  PUBLIC '-//W3C//DTD SVG 1.1//EN'  'http://www.w3.org/Graphics/SVG/1.1/DTD/svg11.dtd'><svg height="100%" style="fill-rule:evenodd;clip-rule:evenodd;stroke-linejoin:round;stroke-miterlimit:1.41421;" version="1.1" viewBox="0 0 128 128" width="100%" xml:space="preserve" xmlns="http://www.w3.org/2000/svg" xmlns:serif="http://www.serif.com/" xmlns:xlink="http://www.w3.org/1999/xlink"><rect height="128" id="Edit" style="fill:none;" width="128" x="0.616" y="0.166"/><path d="M106.82,68.778c1.163,0.505 1.25,0.707 1.33,1.884c0,9.386 0.03,18.771 0,28.157c-0.106,11.252 -9.816,21.75 -21.863,21.863c-18.76,0.058 -37.519,0.06 -56.279,0c-11.313,-0.108 -21.743,-9.797 -21.857,-21.858c-0.06,-18.761 -0.06,-37.523 0,-56.284c0.107,-11.351 9.788,-21.819 21.996,-21.858l44.202,0c1.471,0.101 1.753,0.607 1.958,1.593c0.241,1.162 -0.715,2.322 -1.958,2.407c-14.772,0 -29.544,-0.046 -44.316,0.001c-9.256,0.087 -17.789,8.017 -17.883,17.883c-0.059,18.744 -0.059,37.488 0,56.233c0.089,9.304 8.018,17.789 17.883,17.883c18.743,0.06 37.486,0.058 56.229,0c9.311,-0.087 17.857,-8.275 17.888,-18.003l0,-28.017c0.088,-1.292 1.279,-2.274 2.67,-1.884Zm5.107,-61.172c6.667,0.132 12,8.506 7.582,14.855l-35.316,50.096c-0.243,0.306 -0.32,0.376 -0.649,0.587l-16.081,9.114c-1.407,0.693 -3.213,-0.491 -2.938,-2.176l3.938,-17.673c0.093,-0.338 0.13,-0.422 0.318,-0.718l35.315,-50.095c1.779,-2.491 4.703,-4.014 7.831,-3.99Zm-0.187,3.999c-1.722,0.03 -3.376,0.898 -4.382,2.306l-35.078,49.758l-2.872,12.888l11.774,-6.672c11.697,-16.593 23.497,-33.115 35.092,-49.779c2.137,-3.154 -0.017,-8.308 -4.268,-8.497c-0.089,-0.003 -0.178,-0.004 -0.266,-0.004Z"/></svg>